<?xml version="1.0" encoding="utf-8"?>
<svg version="1.1" id="Layer_1" xmlns="http://www.w3.org/2000/svg" xmlns:xlink="http://www.w3.org/1999/xlink" x="0px" y="0px"
	 width="9px" height="13px" viewBox="0 0 9 13" enable-background="new 0 0 9 13" xml:space="preserve">
<path fill="#FFFFFF" d="M8.387,6.769C7.978,6.256,7.516,6,7,6V2c0.271,0,0.505-0.099,0.703-0.297S8,1.271,8,1
	c0-0.271-0.099-0.505-0.297-0.703S7.271,0,7,0H2C1.729,0,1.495,0.099,1.297,0.297S1,0.729,1,1c0,0.271,0.099,0.505,0.297,0.703
	S1.729,2,2,2v4C1.484,6,1.022,6.256,0.613,6.769C0.204,7.283,0,7.859,0,8.5c0,0.135,0.049,0.253,0.148,0.352
	C0.247,8.95,0.365,9,0.5,9h3.156l0.594,3.789C4.276,12.929,4.359,13,4.5,13h0.008c0.062,0,0.116-0.022,0.16-0.067
	c0.044-0.044,0.072-0.098,0.082-0.16L5.148,9H8.5C8.635,9,8.752,8.95,8.851,8.852C8.95,8.753,9,8.635,9,8.5
	C9,7.859,8.795,7.283,8.387,6.769z"/>
</svg>
